<svg width="88" height="68" viewBox="0 0 88 68" fill="none" xmlns="http://www.w3.org/2000/svg">
<path d="M3 49.5L24.6943 28.1761C25.5728 27.3125 26.6159 26.6275 27.7638 26.1601C28.9117 25.6927 30.1421 25.4522 31.3846 25.4522C32.6271 25.4522 33.8575 25.6927 35.0054 26.1601C36.1534 26.6275 37.1964 27.3125 38.075 28.1761L59.7692 49.5M53.4615 43.3L59.3866 37.4761C60.2652 36.6125 61.3082 35.9275 62.4561 35.4601C63.6041 34.9927 64.8344 34.7522 66.0769 34.7522C67.3194 34.7522 68.5498 34.9927 69.6977 35.4601C70.8457 35.9275 71.8887 36.6125 72.7673 37.4761L85 49.5M9.30769 65H78.6923C80.3652 65 81.9696 64.3468 83.1525 63.1841C84.3354 62.0213 85 60.4443 85 58.8V9.2C85 7.55566 84.3354 5.97866 83.1525 4.81594C81.9696 3.65321 80.3652 3 78.6923 3H9.30769C7.63479 3 6.0304 3.65321 4.84748 4.81594C3.66456 5.97866 3 7.55566 3 9.2V58.8C3 60.4443 3.66456 62.0213 4.84748 63.1841C6.0304 64.3468 7.63479 65 9.30769 65ZM53.4615 18.5H53.4952V18.5331H53.4615V18.5ZM55.0385 18.5C55.0385 18.9111 54.8723 19.3053 54.5766 19.596C54.2809 19.8867 53.8798 20.05 53.4615 20.05C53.0433 20.05 52.6422 19.8867 52.3465 19.596C52.0508 19.3053 51.8846 18.9111 51.8846 18.5C51.8846 18.0889 52.0508 17.6947 52.3465 17.404C52.6422 17.1133 53.0433 16.95 53.4615 16.95C53.8798 16.95 54.2809 17.1133 54.5766 17.404C54.8723 17.6947 55.0385 18.0889 55.0385 18.5Z" stroke="#6FE4F6" stroke-opacity="0.051" stroke-width="5" stroke-linecap="round" stroke-linejoin="round"/>
</svg>
