<svg width="726" height="441" viewBox="0 0 726 441" fill="none" xmlns="http://www.w3.org/2000/svg">
<path d="M422.852 314.501C428.168 310.917 433.209 306.894 437.927 302.6C446.766 294.555 454.713 285.528 462.686 276.56C462.641 276.511 462.588 276.466 462.539 276.417L396.521 292.024C396.521 292.024 406.262 302.684 422.852 314.501Z" fill="#C5E1E6"/>
<path d="M461.333 338.416C472.186 336.8 482.86 334.635 492.507 328.707C499.025 324.702 503.917 319.635 508.261 314.211L502.15 304.028C502.15 304.028 489.56 297.716 476.686 288.319C467.605 301.823 456.61 316.064 443.967 327.599C449.057 330.318 454.431 332.916 460.137 335.238L461.333 338.416Z" fill="#C5E1E6"/>
<path d="M469.918 394.567C472.364 397.237 474.98 399.826 477.806 402.147C485.601 384.38 496.672 362.094 509.051 346.126C492.275 356.889 475.065 358.072 456.695 359.246L450.463 371.992C457.106 379.349 463.146 387.161 469.918 394.567Z" fill="#C5E1E6"/>
<path d="M465.565 420.004C455.954 411.933 448.383 401.67 441.021 391.317L437.338 398.857L419.334 394.098C408.579 391.884 397.66 396.956 392.379 406.58C388.361 413.915 383.732 422.826 380.04 431.268H466.146C466.146 431.268 467.262 428.089 469.271 422.861C467.981 421.928 466.726 420.982 465.565 420.004Z" fill="#C5E1E6"/>
<path d="M281.286 323.233L253.278 385.652C261.72 387.286 266.912 394.576 270.095 403.478C267.327 413.683 261.032 432.91 251.876 437.267H275.014C298.09 399.46 291.487 350.844 281.286 323.233Z" fill="#C5E1E6"/>
<path d="M234.113 369.809C228.292 364.005 223.225 357.885 218.502 351.59C217.895 386.764 203.663 413.656 203.663 413.656L166.855 406.455C147.645 416.862 148.449 440.067 148.449 440.067H227.671L249.724 384.393C243.939 379.434 238.658 374.344 234.113 369.809Z" fill="#C5E1E6"/>
<path d="M592.684 275.591C560.372 263.368 545.528 249.391 546.399 208.346C546.399 208.346 548.145 229.306 574.35 245.029C585.506 251.725 598.555 257.158 610.541 263.614C608.429 243.283 610.188 227.208 610.188 227.208C604.514 209.498 597.001 192.82 587.921 177.691C595.064 177.003 601.858 176.101 608.389 175.034C604.639 164.901 600.956 154.744 597.282 144.584C596.617 142.74 596.697 141.075 597.238 139.651C579.497 136.803 561.14 131.423 542.752 126.039C538.569 122.848 532.122 117.821 523.176 112.937C516.98 121.254 509.342 129.946 500.985 135.865C480.025 150.713 467.797 164.686 460.811 182.155C460.811 182.155 462.556 153.334 483.52 130.629C495.226 117.95 502.025 113.982 506.507 105.5C489.369 99.4193 466.588 95.9149 437.333 101.178C436.119 101.397 434.869 101.589 433.637 101.794C421.343 109.566 404.356 126.419 400.553 161.2C394.441 217.092 370.861 248.533 313.215 257.27C313.215 257.27 359.5 240.676 375.223 195.262C387.62 159.441 379.941 133.397 401.419 105.138C388.334 105.834 375.013 105.861 362.196 105.397C356.986 115.089 352.522 128.714 353.384 146.405C355.326 186.132 331.17 215.19 294.733 219.23C294.733 219.23 328.616 206.132 334.897 171.668C338.701 150.829 336.246 125.477 338.862 103.991C332.893 103.486 327.179 102.892 321.795 102.232C319.331 148.963 296.621 167.311 296.621 167.311C307.688 137.263 306.657 113.651 304.108 99.5979C289.996 97.0667 280.523 94.1292 278.885 91.5757C277.84 89.9462 276.581 88.5668 275.251 87.3793C268.938 94.6158 263.72 104.772 262.269 118.986C257.907 161.78 208.127 179.244 208.127 179.244C208.127 179.244 236.073 157.41 244.805 127.718C249.617 111.357 250.729 94.7453 257.461 81.0669H222.042C208.725 96.9595 208.975 115.709 213.368 133.245C218.604 154.209 198.225 167.597 198.225 167.597C198.225 167.597 207.542 158.86 195.314 126.258C188.85 109.017 191.841 94.2676 196.078 84.1472C191.341 85.1918 186.154 86.3838 180.868 87.6159C166.02 106.705 172.855 127.906 184.837 151.874C199.395 180.985 180.181 201.945 180.181 201.945C180.181 201.945 183.672 167.597 162.132 134.99C151.516 118.924 150.659 104.705 152.52 94.4015C143.512 96.6024 137.244 98.1693 137.244 98.1693L125.239 108.968C135.44 96.3658 127.637 80.7633 127.637 80.7633C106.03 95.7676 32.2049 124.575 32.2049 124.575L29.2049 138.78C22.0041 146.383 0 151.986 0 151.986C10.4016 172.392 26.8077 177.994 26.8077 177.994L31.2049 166.387C53.2135 164.387 54.4101 192.396 54.4101 192.396L36.4058 187.994C47.2092 199.195 50.0082 218.4 50.0082 218.4L80.8159 194.391L109.226 195.994C136.034 173.186 113.628 141.178 113.628 141.178C140.034 165.588 122.034 197.597 122.034 197.597C130.329 200.57 138.154 205.012 145.203 209.976C148.976 203.521 151.601 193.958 148.73 180.396C142.324 150.124 130.681 137.892 141.744 117.517C141.744 117.517 136.503 139.057 155.136 165.258C170.806 187.289 172.85 206.449 165.842 227.56C174.48 236.248 179.649 243.208 179.649 243.208L194.855 207.199L182.846 254.413L193.006 273.292C200.051 262.265 210.033 242.966 212.774 218.824C217.14 180.396 269.541 183.887 285.255 131.49C285.255 131.49 286.13 172.539 261.68 187.387C237.225 202.235 225.872 226.686 229.367 251.141C231.551 266.431 220.778 290.551 212.381 306.515C223.814 319.97 232.854 336.559 245.166 348.97C249.51 353.349 254.059 357.519 258.787 361.487L276.474 316.832L266.876 271.221C274.077 268.819 288.478 244.81 288.478 244.81C285.277 255.216 274.077 272.02 274.077 272.02L282.077 310.43L305.38 305.158C309.058 298.917 318.665 285.515 336.205 279.377C359.495 271.225 379.29 238.623 379.29 238.623C379.29 238.623 372.884 272.39 354.259 280.542C346.428 283.966 340.455 291.086 336.156 298.198L354.803 293.979C373.933 282.229 398.888 260.756 405.441 226.297C417.637 162.11 431.601 140.825 455.869 124.316C455.869 124.316 424.128 174.61 428.41 220.23C430.49 242.346 419.606 264.747 407.852 281.975L458.931 270.417C456.534 250.413 463.735 213.596 463.735 213.596C463.735 213.596 466.137 261.609 467.739 264.015C474.994 274.899 483.815 282.747 492.819 288.43C487.052 272.752 482.9 254.234 485.257 236.293C491.083 192.043 523.69 182.726 528.346 152.454C528.346 152.454 533.006 176.909 523.69 195.539C515.641 211.623 487.703 241.618 528.899 301.957C536.89 303.301 542.163 303.225 542.163 303.225L557.689 314.327C560.899 313.443 563.966 312.515 566.76 311.47C583.412 305.256 598.403 296.939 610.965 285.484C606.086 281.841 600.09 278.395 592.684 275.591Z" fill="#C5E1E6"/>
<path d="M618.242 365.17C620.724 365.635 623.55 366.085 626.943 366.554C641.335 368.536 653.094 368.572 666.246 366.384C668.469 357.014 669.848 350.3 669.406 349.639C667.808 347.242 646.197 348.84 625.393 313.631C624.001 311.274 622.764 308.827 621.594 306.345C611.242 316.443 598.849 324.523 584.894 330.93C584.077 331.305 583.233 331.631 582.412 331.992L617.135 356.813L618.242 365.17Z" fill="#C5E1E6"/>
<path d="M648.84 393.688C640.634 394.13 631.112 393.665 621.764 391.866L623.791 407.259C623.791 407.259 599.782 400.857 594.983 402.46C563.845 412.839 564.577 434.469 564.577 434.469H648.603C648.603 434.469 654.246 413.719 659.661 392.737C656.054 393.165 652.451 393.496 648.84 393.688Z" fill="#C5E1E6"/>
<path d="M637.492 140.428C629.117 141.803 620.461 142.004 611.59 141.352C615.675 151.593 619.8 161.82 624.005 172.017C630.71 170.503 637.041 168.767 643.018 166.825C641.683 157.878 639.867 149.097 637.492 140.428Z" fill="#C5E1E6"/>
<path d="M690.402 4.54114C676.804 -1.30253 661.679 -1.50789 649.795 3.934C645.608 5.85808 641.889 8.3402 638.612 11.175C631.157 17.6258 638.652 29.4292 647.791 25.7105C656.697 22.0855 666.201 21.6481 674.969 23.7552C679.103 16.6169 684.205 10.1393 690.402 4.54114Z" fill="#C5E1E6"/>
<path d="M692.263 32.2149C700.647 38.9826 706.509 48.9557 707.334 61.3306C713.45 61.7502 719.495 62.768 725.397 64.4689C725.397 64.2948 725.419 64.1296 725.424 63.9555C725.834 43.4647 718.995 27.9292 708.794 17.2865C702.415 21.4337 696.91 26.4605 692.263 32.2149Z" fill="#C5E1E6"/>
<path d="M703.995 83.0089C701.651 89.5936 698.062 96.5444 692.937 103.803C697.111 111.651 700.687 119.772 703.446 128.196C712.946 116.464 719.151 103.049 722.486 88.3526C716.598 85.7321 710.366 84.0044 703.995 83.0089Z" fill="#C5E1E6"/>
<path d="M686.076 143.079C684.513 135.008 682.379 127.044 679.723 119.258C671.946 126.682 663.656 131.964 654.956 135.517C657.835 143.271 660.228 151.195 662.13 159.347C671.29 155.088 679.312 150.178 686.366 144.749C686.272 144.191 686.178 143.633 686.076 143.079Z" fill="#C5E1E6"/>
</svg>
