<svg width="822" height="536" viewBox="0 0 822 536" fill="none" xmlns="http://www.w3.org/2000/svg">
<g filter="url(#filter0_d_5_271)">
<path d="M456.852 342.501C462.168 338.917 467.209 334.894 471.927 330.6C480.766 322.555 488.713 313.528 496.686 304.56C496.641 304.511 496.588 304.466 496.539 304.417L430.521 320.024C430.521 320.024 440.262 330.684 456.852 342.501Z" fill="#C5E1E6"/>
<path d="M495.333 366.416C506.186 364.8 516.86 362.635 526.507 356.707C533.025 352.702 537.917 347.635 542.261 342.211L536.15 332.028C536.15 332.028 523.56 325.716 510.686 316.319C501.605 329.823 490.61 344.064 477.967 355.599C483.057 358.318 488.431 360.916 494.137 363.238L495.333 366.416Z" fill="#C5E1E6"/>
<path d="M503.918 422.567C506.364 425.237 508.98 427.826 511.806 430.147C519.601 412.38 530.672 390.094 543.051 374.126C526.275 384.889 509.065 386.072 490.695 387.246L484.463 399.992C491.106 407.349 497.146 415.161 503.918 422.567Z" fill="#C5E1E6"/>
<path d="M499.565 448.004C489.954 439.933 482.383 429.67 475.021 419.317L471.338 426.857L453.334 422.098C442.579 419.884 431.66 424.956 426.379 434.58C422.361 441.915 417.732 450.826 414.04 459.268H500.146C500.146 459.268 501.262 456.089 503.271 450.861C501.981 449.928 500.726 448.982 499.565 448.004Z" fill="#C5E1E6"/>
<path d="M315.286 351.233L287.278 413.652C295.72 415.286 300.912 422.576 304.095 431.478C301.327 441.683 295.032 460.91 285.876 465.267H309.014C332.09 427.46 325.487 378.844 315.286 351.233Z" fill="#C5E1E6"/>
<path d="M268.113 397.809C262.292 392.005 257.225 385.885 252.502 379.59C251.895 414.764 237.663 441.656 237.663 441.656L200.855 434.455C181.645 444.862 182.449 468.067 182.449 468.067H261.671L283.724 412.393C277.939 407.434 272.658 402.344 268.113 397.809Z" fill="#C5E1E6"/>
<path d="M626.684 303.591C594.372 291.368 579.528 277.391 580.399 236.346C580.399 236.346 582.145 257.306 608.35 273.029C619.506 279.725 632.555 285.158 644.541 291.614C642.429 271.283 644.188 255.208 644.188 255.208C638.514 237.498 631.001 220.82 621.921 205.691C629.064 205.003 635.858 204.101 642.389 203.034C638.639 192.901 634.956 182.744 631.282 172.584C630.617 170.74 630.697 169.075 631.238 167.651C613.497 164.803 595.14 159.423 576.752 154.039C572.569 150.848 566.122 145.821 557.176 140.937C550.98 149.254 543.342 157.946 534.985 163.865C514.025 178.713 501.797 192.686 494.811 210.155C494.811 210.155 496.556 181.334 517.52 158.629C529.226 145.95 536.025 141.982 540.507 133.5C523.369 127.419 500.588 123.915 471.333 129.178C470.119 129.397 468.869 129.589 467.637 129.794C455.343 137.566 438.356 154.419 434.553 189.2C428.441 245.092 404.861 276.533 347.215 285.27C347.215 285.27 393.5 268.676 409.223 223.262C421.62 187.441 413.941 161.397 435.419 133.138C422.334 133.834 409.013 133.861 396.196 133.397C390.986 143.089 386.522 156.714 387.384 174.405C389.326 214.132 365.17 243.19 328.733 247.23C328.733 247.23 362.616 234.132 368.897 199.668C372.701 178.829 370.246 153.477 372.862 131.991C366.893 131.486 361.179 130.892 355.795 130.232C353.331 176.963 330.621 195.311 330.621 195.311C341.688 165.263 340.657 141.651 338.108 127.598C323.996 125.067 314.523 122.129 312.885 119.576C311.84 117.946 310.581 116.567 309.251 115.379C302.938 122.616 297.72 132.772 296.269 146.986C291.907 189.78 242.127 207.244 242.127 207.244C242.127 207.244 270.073 185.41 278.805 155.718C283.617 139.357 284.729 122.745 291.461 109.067H256.042C242.725 124.96 242.975 143.709 247.368 161.245C252.604 182.209 232.225 195.597 232.225 195.597C232.225 195.597 241.542 186.86 229.314 154.258C222.85 137.017 225.841 122.268 230.078 112.147C225.341 113.192 220.154 114.384 214.868 115.616C200.02 134.705 206.855 155.906 218.837 179.874C233.395 208.985 214.181 229.945 214.181 229.945C214.181 229.945 217.672 195.597 196.132 162.99C185.516 146.924 184.659 132.705 186.52 122.402C177.512 124.602 171.244 126.169 171.244 126.169L159.239 136.968C169.44 124.366 161.637 108.763 161.637 108.763C140.03 123.768 66.2049 152.575 66.2049 152.575L63.2049 166.78C56.0041 174.383 34 179.986 34 179.986C44.4016 200.392 60.8077 205.994 60.8077 205.994L65.2049 194.387C87.2135 192.387 88.4101 220.396 88.4101 220.396L70.4058 215.994C81.2092 227.195 84.0082 246.4 84.0082 246.4L114.816 222.391L143.226 223.994C170.034 201.186 147.628 169.178 147.628 169.178C174.034 193.588 156.034 225.597 156.034 225.597C164.329 228.57 172.154 233.012 179.203 237.976C182.976 231.521 185.601 221.958 182.73 208.396C176.324 178.124 164.681 165.892 175.744 145.517C175.744 145.517 170.503 167.057 189.136 193.258C204.806 215.289 206.85 234.449 199.842 255.56C208.48 264.248 213.649 271.208 213.649 271.208L228.855 235.199L216.846 282.413L227.006 301.292C234.051 290.265 244.033 270.966 246.774 246.824C251.14 208.396 303.541 211.887 319.255 159.49C319.255 159.49 320.13 200.539 295.68 215.387C271.225 230.235 259.872 254.686 263.367 279.141C265.551 294.431 254.778 318.551 246.381 334.515C257.814 347.97 266.854 364.559 279.166 376.97C283.51 381.349 288.059 385.519 292.787 389.487L310.474 344.832L300.876 299.221C308.077 296.819 322.478 272.81 322.478 272.81C319.277 283.216 308.077 300.02 308.077 300.02L316.077 338.43L339.38 333.158C343.058 326.917 352.665 313.515 370.205 307.377C393.495 299.225 413.29 266.623 413.29 266.623C413.29 266.623 406.884 300.39 388.259 308.542C380.428 311.966 374.455 319.086 370.156 326.198L388.803 321.979C407.933 310.229 432.888 288.756 439.441 254.297C451.637 190.11 465.601 168.825 489.869 152.316C489.869 152.316 458.128 202.61 462.41 248.23C464.49 270.346 453.606 292.748 441.852 309.975L492.931 298.417C490.534 278.413 497.735 241.596 497.735 241.596C497.735 241.596 500.137 289.609 501.739 292.015C508.994 302.899 517.815 310.747 526.819 316.43C521.052 300.752 516.9 282.234 519.257 264.293C525.083 220.043 557.69 210.726 562.346 180.454C562.346 180.454 567.006 204.909 557.69 223.539C549.641 239.623 521.703 269.618 562.899 329.957C570.89 331.301 576.163 331.225 576.163 331.225L591.689 342.327C594.899 341.443 597.966 340.515 600.76 339.47C617.412 333.256 632.403 324.939 644.965 313.484C640.086 309.841 634.09 306.395 626.684 303.591Z" fill="#C5E1E6"/>
<path d="M652.242 393.17C654.724 393.635 657.55 394.085 660.943 394.554C675.335 396.536 687.094 396.572 700.246 394.384C702.469 385.014 703.848 378.3 703.406 377.639C701.808 375.242 680.197 376.84 659.393 341.631C658.001 339.274 656.764 336.827 655.594 334.345C645.242 344.443 632.849 352.523 618.894 358.93C618.077 359.305 617.233 359.631 616.412 359.992L651.135 384.813L652.242 393.17Z" fill="#C5E1E6"/>
<path d="M682.84 421.688C674.634 422.13 665.112 421.665 655.764 419.866L657.791 435.259C657.791 435.259 633.782 428.857 628.983 430.46C597.845 440.839 598.577 462.469 598.577 462.469H682.603C682.603 462.469 688.246 441.719 693.661 420.737C690.054 421.165 686.451 421.496 682.84 421.688Z" fill="#C5E1E6"/>
<path d="M671.492 168.428C663.117 169.803 654.461 170.004 645.59 169.352C649.675 179.593 653.8 189.82 658.005 200.017C664.71 198.503 671.041 196.767 677.018 194.825C675.683 185.878 673.867 177.097 671.492 168.428Z" fill="#C5E1E6"/>
<path d="M724.402 32.5411C710.804 26.6975 695.679 26.4921 683.795 31.934C679.608 33.8581 675.889 36.3402 672.612 39.175C665.157 45.6258 672.652 57.4292 681.791 53.7105C690.697 50.0855 700.201 49.6481 708.969 51.7552C713.103 44.6169 718.205 38.1393 724.402 32.5411Z" fill="#C5E1E6"/>
<path d="M726.263 60.2149C734.647 66.9826 740.509 76.9557 741.334 89.3306C747.45 89.7502 753.495 90.768 759.397 92.4689C759.397 92.2948 759.419 92.1296 759.424 91.9555C759.834 71.4647 752.995 55.9292 742.794 45.2865C736.415 49.4337 730.91 54.4605 726.263 60.2149Z" fill="#C5E1E6"/>
<path d="M737.995 111.009C735.651 117.594 732.062 124.544 726.937 131.803C731.111 139.651 734.687 147.772 737.446 156.196C746.946 144.464 753.151 131.049 756.486 116.353C750.598 113.732 744.366 112.004 737.995 111.009Z" fill="#C5E1E6"/>
<path d="M720.076 171.079C718.513 163.008 716.379 155.044 713.723 147.258C705.946 154.682 697.656 159.964 688.956 163.517C691.835 171.271 694.228 179.195 696.13 187.347C705.29 183.088 713.312 178.178 720.366 172.749C720.272 172.191 720.178 171.633 720.076 171.079Z" fill="#C5E1E6"/>
</g>
<defs>
<filter id="filter0_d_5_271" x="0.0999985" y="0.0999985" width="821.241" height="535.867" filterUnits="userSpaceOnUse" color-interpolation-filters="sRGB">
<feFlood flood-opacity="0" result="BackgroundImageFix"/>
<feColorMatrix in="SourceAlpha" type="matrix" values="0 0 0 0 0 0 0 0 0 0 0 0 0 0 0 0 0 0 127 0" result="hardAlpha"/>
<feOffset dx="14" dy="20"/>
<feGaussianBlur stdDeviation="23.95"/>
<feColorMatrix type="matrix" values="0 0 0 0 0.847059 0 0 0 0 0.968627 0 0 0 0 0.992157 0 0 0 0.26 0"/>
<feBlend mode="normal" in2="BackgroundImageFix" result="effect1_dropShadow_5_271"/>
<feBlend mode="normal" in="SourceGraphic" in2="effect1_dropShadow_5_271" result="shape"/>
</filter>
</defs>
</svg>
